HIERARCHY
ROOT Hips
{
	OFFSET 0.000000 0.000000 0.000000
	CHANNELS 6 Xposition Yposition Zposition Zrotation Yrotation Xrotation 
	JOINT LHipJoint
	{
		OFFSET 0.000000 0.000000 0.000000
		CHANNELS 3 Zrotation Yrotation Xrotation
		JOINT LeftUpLeg
		{
			OFFSET 1.363060 -1.794630 0.839290
			CHANNELS 3 Zrotation Yrotation Xrotation
			JOINT LeftLeg
			{
				OFFSET 2.448110 -6.726130 0.000000
				CHANNELS 3 Zrotation Yrotation Xrotation
				JOINT LeftFoot
				{
					OFFSET 2.562200 -7.039590 0.000000
					CHANNELS 3 Zrotation Yrotation Xrotation
					JOINT LeftToeBase
					{
						OFFSET 0.157640 -0.433110 2.322550
						CHANNELS 3 Zrotation Yrotation Xrotation
						End Site
						{
							OFFSET 0.000000 0.000000 0.000000
						}
					}
				}
			}
		}
	}
	JOINT RHipJoint
	{
		OFFSET 0.000000 0.000000 0.000000
		CHANNELS 3 Zrotation Yrotation Xrotation
		JOINT RightUpLeg
		{
			OFFSET -1.305520 -1.794630 0.839290
			CHANNELS 3 Zrotation Yrotation Xrotation
			JOINT RightLeg
			{
				OFFSET -2.542530 -6.985550 0.000000
				CHANNELS 3 Zrotation Yrotation Xrotation
				JOINT RightFoot
				{
					OFFSET -2.568260 -7.056230 0.000000
					CHANNELS 3 Zrotation Yrotation Xrotation
					JOINT RightToeBase
					{
						OFFSET -0.164730 -0.452590 2.363150
						CHANNELS 3 Zrotation Yrotation Xrotation
						End Site
						{
							OFFSET 0.000000 0.000000 0.000000
						}
					}
				}
			}
		}
	}
	JOINT LowerBack
	{
		OFFSET 0.000000 0.000000 0.000000
		CHANNELS 3 Zrotation Yrotation Xrotation
		JOINT Spine
		{
			OFFSET 0.028270 2.035590 -0.193380
			CHANNELS 3 Zrotation Yrotation Xrotation
			JOINT Spine1
			{
				OFFSET 0.056720 2.048850 -0.042750
				CHANNELS 3 Zrotation Yrotation Xrotation
				JOINT Neck
				{
					OFFSET 0.000000 0.000000 0.000000
					CHANNELS 3 Zrotation Yrotation Xrotation
					JOINT Neck1
					{
						OFFSET -0.054170 1.746240 0.172020
						CHANNELS 3 Zrotation Yrotation Xrotation
						JOINT Head
						{
							OFFSET 0.104070 1.761360 -0.123970
							CHANNELS 3 Zrotation Yrotation Xrotation
							End Site
							{
								OFFSET 0.000000 0.000000 0.000000
							}
						}
					}
				}
				JOINT LeftShoulder
				{
					OFFSET 0.000000 0.000000 0.000000
					CHANNELS 3 Zrotation Yrotation Xrotation
					JOINT LeftArm
					{
						OFFSET 3.362410 1.200890 -0.311210
						CHANNELS 3 Zrotation Yrotation Xrotation
						JOINT LeftForeArm
						{
							OFFSET 4.983000 -0.000000 -0.000000
							CHANNELS 3 Zrotation Yrotation Xrotation
							JOINT LeftHand
							{
								OFFSET 3.483560 -0.000000 -0.000000
								CHANNELS 3 Zrotation Yrotation Xrotation
								JOINT LeftFingerBase
								{
									OFFSET 0.000000 0.000000 0.000000
									CHANNELS 3 Zrotation Yrotation Xrotation
									JOINT LeftHandIndex1
									{
										OFFSET 0.715260 -0.000000 -0.000000
										CHANNELS 3 Zrotation Yrotation Xrotation
										End Site
										{
											OFFSET 0.000000 0.000000 0.000000
										}
									}
								}
								JOINT LThumb
								{
									OFFSET 0.000000 0.000000 0.000000
									CHANNELS 3 Zrotation Yrotation Xrotation
									End Site
									{
										OFFSET 0.000000 0.000000 0.000000
									}
								}
							}
						}
					}
				}
				JOINT RightShoulder
				{
					OFFSET 0.000000 0.000000 0.000000
					CHANNELS 3 Zrotation Yrotation Xrotation
					JOINT RightArm
					{
						OFFSET -3.136600 1.374050 -0.404650
						CHANNELS 3 Zrotation Yrotation Xrotation
						JOINT RightForeArm
						{
							OFFSET -5.241900 -0.000000 -0.000000
							CHANNELS 3 Zrotation Yrotation Xrotation
							JOINT RightHand
							{
								OFFSET -3.444170 -0.000000 -0.000000
								CHANNELS 3 Zrotation Yrotation Xrotation
								JOINT RightFingerBase
								{
									OFFSET 0.000000 0.000000 0.000000
									CHANNELS 3 Zrotation Yrotation Xrotation
									JOINT RightHandIndex1
									{
										OFFSET -0.622530 -0.000000 -0.000000
										CHANNELS 3 Zrotation Yrotation Xrotation
										End Site
										{
											OFFSET 0.000000 0.000000 0.000000
										}
									}
								}
								JOINT RThumb
								{
									OFFSET 0.000000 0.000000 0.000000
									CHANNELS 3 Zrotation Yrotation Xrotation
									End Site
									{
										OFFSET 0.000000 0.000000 0.000000
									}
								}
							}
						}
					}
				}
			}
		}
	}
}
MOTION
Frames: 8
Frame Time: 0.008333
-28.777056 17.484482 1.015579 26.627943 88.218942 23.479840 2.309607 -2.401807 -0.432695 -18.410179 7.921404 10.951342 -1.634739 0.585211 1.412999 -0.351368 6.861650 -10.380711 0.040900 -1.304800 -3.587900 -6.615251 4.307133 -7.099019 23.406595 -14.716942 15.232999 -0.543359 -2.961275 2.418759 -0.423960 -0.717686 -15.498027 -0.000100 0.063200 -0.173600 -0.842990 1.534541 8.564007 0.537578 2.076962 -2.075058 -1.660388 0.737115 3.133422 0.290641 2.501229 -19.660226 4.438050 3.095542 9.412730 -1.079100 1.782300 11.321500 6.819646 -1.068252 0.029593 -90.786043 -0.089458 42.151886 12.610721 -22.414526 -2.734916 -0.325001 0.694618 10.769985 22.629840 -24.852142 -10.371800 -7.125000 0.000000 0.000000 -3.984200 2.697500 3.801600 -6.255124 1.451278 1.861489 89.257369 -4.539096 34.447589 -20.144481 34.652456 -5.454955 0.349666 -2.800107 0.490851 -14.686585 -31.719001 7.403700 7.125000 0.000000 0.000000 17.680800 -58.715100 -6.048400 
-28.776239 17.484584 1.015988 24.880074 88.251238 21.740359 2.256018 -2.420008 -0.434656 -18.266975 7.905942 10.966158 -1.632783 0.575777 1.406368 -0.351348 6.866970 -10.422753 0.033100 -1.174200 -3.228300 -6.678968 4.267581 -7.091823 23.528653 -14.765165 15.161690 -0.542445 -2.998364 2.508169 -0.424324 -0.591417 -15.443769 0.000000 0.012100 -0.033200 -0.763930 1.526640 8.538491 0.547030 2.073122 -2.070531 -1.696592 0.730304 3.171873 0.288491 2.501186 -19.734179 4.446760 3.103539 9.456319 -1.069100 1.787800 11.364900 6.822208 -1.066947 0.028573 -90.758421 -0.125721 42.251227 12.598446 -22.394807 -2.729375 -0.326195 0.692218 10.676027 22.585835 -24.769071 -10.318500 -7.125000 0.000000 0.000000 -4.001000 2.794500 3.810700 -6.258361 1.446497 1.857658 89.274173 -4.494970 34.410729 -20.085990 34.594624 -5.427398 0.341904 -2.792616 0.524408 -14.746747 -31.423708 7.363700 7.125000 0.000000 0.000000 17.433700 -58.453000 -5.850100 
-28.773176 17.485299 1.014047 26.255210 88.204219 23.121789 2.302031 -2.411707 -0.438172 -18.418266 7.936875 10.977631 -1.636948 0.562065 1.351175 -0.362114 6.959145 -10.386942 0.051400 -1.463500 -4.025200 -6.628785 4.311056 -7.091438 23.269827 -15.016892 15.099349 -0.545203 -3.024422 2.579530 -0.430698 -0.300116 -15.407915 -0.000900 0.189800 -0.521400 -0.809867 1.530385 8.510675 0.536830 2.073697 -2.072932 -1.681329 0.732465 3.180037 0.233634 2.485267 -19.740197 4.464038 3.102411 9.469816 -1.047100 1.785000 11.372200 6.818049 -1.060554 0.027072 -90.758317 -0.109824 42.308126 12.589229 -22.380955 -2.725391 -0.326497 0.690774 10.685710 22.569905 -24.701413 -10.285100 -7.125000 0.000000 0.000000 -4.002400 2.869700 3.806500 -6.267005 1.449987 1.855289 89.259529 -4.478551 34.414307 -20.019458 34.518740 -5.390768 0.344064 -2.782191 0.570506 -14.626798 -31.101242 7.233200 7.125000 0.000000 0.000000 17.353700 -58.132100 -5.687300 
-28.771950 17.486422 1.013128 27.533144 88.165194 24.391105 2.342849 -2.399921 -0.438099 -18.528451 8.020016 10.955354 -1.636860 0.564745 1.340308 -0.366888 6.985396 -10.313662 0.070900 -1.717900 -4.726800 -6.577176 4.347546 -7.098550 23.127374 -15.046390 15.165380 -0.545147 -3.031385 2.609394 -0.440589 -0.199683 -15.534161 -0.000400 0.127600 -0.350500 -0.869815 1.536173 8.501079 0.528426 2.077076 -2.069113 -1.659533 0.736595 3.191367 0.229156 2.485363 -19.713305 4.469152 3.102088 9.457776 -1.045200 1.784900 11.356100 6.814714 -1.055560 0.028071 -90.751722 -0.120849 42.340331 12.576459 -22.364779 -2.720536 -0.327466 0.691587 10.711666 22.630222 -24.720876 -10.322600 -7.125000 0.000000 0.000000 -3.967300 2.837500 3.775200 -6.267409 1.450239 1.856989 89.247568 -4.471919 34.489976 -20.033516 34.533997 -5.397646 0.341420 -2.783829 0.525140 -14.700668 -31.168380 7.282800 7.125000 0.000000 0.000000 17.323000 -58.208700 -5.709000 
-28.771746 17.485605 1.013741 27.201107 88.152026 24.072781 2.331721 -2.403263 -0.437053 -18.492580 8.067568 10.927163 -1.633129 0.564412 1.340805 -0.358355 6.905071 -10.295579 0.060200 -1.583800 -4.356600 -6.589753 4.332851 -7.097201 23.210588 -14.932623 15.165804 -0.545175 -3.037922 2.631820 -0.444901 -0.236162 -15.631291 -0.000000 -0.009100 0.025000 -0.882875 1.540958 8.482227 0.531704 2.081770 -2.069858 -1.640626 0.737902 3.187644 0.219582 2.484979 -19.665835 4.492038 3.100733 9.428456 -1.031800 1.785400 11.324500 6.813180 -1.055820 0.029430 -90.759495 -0.115205 42.272681 12.566761 -22.353382 -2.717381 -0.325460 0.692030 10.795517 22.582204 -24.737317 -10.304800 -7.125000 0.000000 0.000000 -3.999100 2.829500 3.806200 -6.264286 1.448430 1.859032 89.234020 -4.487686 34.559631 -20.081948 34.584649 -5.419517 0.340709 -2.786648 0.474392 -14.774227 -31.292165 7.346100 7.125000 0.000000 0.000000 17.326900 -58.338500 -5.764800 
-28.771031 17.484380 1.012822 27.527287 88.151911 24.408729 2.341883 -2.401128 -0.439772 -18.542816 7.986060 10.969060 -1.636470 0.549338 1.299832 -0.349533 6.860334 -10.381117 0.037600 -1.252300 -3.443300 -6.584469 4.343346 -7.093386 23.118359 -15.092712 15.063618 -0.547664 -3.039061 2.626230 -0.440054 -0.145065 -15.499411 -0.000500 0.145900 -0.400900 -0.867340 1.526898 8.460396 0.524469 2.064520 -2.068286 -1.670717 0.730135 3.208548 0.212588 2.490838 -19.680679 4.516950 3.113228 9.437831 -1.012700 1.793500 11.331900 6.808381 -1.050274 0.028877 -90.754392 -0.116581 42.167001 12.563956 -22.348483 -2.716548 -0.322184 0.690768 10.892846 22.448611 -24.687227 -10.219500 -7.125000 0.000000 0.000000 -4.075600 2.908500 3.873500 -6.268507 1.448597 1.859298 89.238235 -4.465858 34.623717 -20.097719 34.609154 -5.428763 0.346099 -2.793314 0.460233 -14.709869 -31.482191 7.359200 7.125000 0.000000 0.000000 17.509400 -58.500200 -5.896500 
-28.772869 17.486320 1.012516 27.790142 88.220552 24.618108 2.347618 -2.392458 -0.435153 -18.552539 7.818211 11.051323 -1.641939 0.565339 1.352300 -0.347140 6.872205 -10.491557 0.025000 -1.021000 -2.806600 -6.572989 4.356518 -7.090657 23.060459 -15.225686 15.090215 -0.546169 -3.014339 2.550552 -0.431993 -0.168401 -15.361971 -0.001900 0.282900 -0.777400 -0.816960 1.493889 8.597456 0.523885 2.025779 -2.085802 -1.707152 0.715312 3.102149 0.222089 2.506808 -19.668818 4.498279 3.136324 9.487319 -1.019600 1.805300 11.370100 6.808465 -1.057894 0.024737 -90.760259 -0.053420 42.101577 12.576874 -22.359124 -2.721163 -0.319456 0.691591 10.915335 22.386885 -24.708665 -10.196800 -7.125000 0.000000 0.000000 -4.117200 2.896600 3.914200 -6.272786 1.462563 1.856746 89.250006 -4.487258 34.644923 -20.067502 34.573740 -5.416890 0.345643 -2.796513 0.467709 -14.714699 -31.521545 7.370100 7.125000 0.000000 0.000000 17.527900 -58.535600 -5.917900 
-28.775014 17.487954 1.014354 27.333884 88.262079 24.151584 2.334165 -2.397288 -0.438201 -18.472365 7.831930 11.009634 -1.638167 0.599825 1.451763 -0.348641 6.853224 -10.421267 0.033900 -1.188300 -3.267000 -6.590117 4.351431 -7.090690 23.062679 -15.325646 15.054333 -0.545723 -3.024147 2.568608 -0.431995 -0.073672 -15.321086 -0.001700 0.264600 -0.726900 -0.813250 1.489312 8.613616 0.538877 2.021505 -2.073927 -1.661577 0.707425 3.133515 0.210366 2.513111 -19.716477 4.484148 3.147314 9.457404 -1.025500 1.804400 11.363400 6.814999 -1.059153 0.027824 -90.811242 -0.108703 42.060527 12.563119 -22.343288 -2.716613 -0.318836 0.693478 10.924983 22.408328 -24.799736 -10.241500 -7.125000 0.000000 0.000000 -4.115100 2.795600 3.919700 -6.270351 1.453374 1.854613 89.228552 -4.407009 34.578064 -20.021464 34.517304 -5.391316 0.342599 -2.784682 0.482067 -14.702756 -31.179785 7.285800 7.125000 0.000000 0.000000 17.328500 -58.218900 -5.715200 
